<?xml version="1.0" encoding="utf-8"?>
<svg version="1.1" xmlns:xlink="http://www.w3.org/1999/xlink" width="9px" height="14px" xmlns="http://www.w3.org/2000/svg">
  <g transform="matrix(1 0 0 1 -1552 -2127 )">
    <path d="M 7.852853367187507 7.5300306347655805  C 8.145618865234383 7.237265136718746  8.145618865234383 6.762734863281253  7.852853367187507 6.4699693652344195  L 1.6071939160156319 0.22430991406247358  C 1.3144284042968764 -0.06845559765622511  0.8399121308593749 -0.06845559765622511  0.547146632812499 0.22430991406247358  C 0.25438112109375766 0.517075425781286  0.25438112109375766 0.9916056855469151  0.547146632812499 1.2843571972656491  L 6.262775435546885 6.999986000000035  L 0.547146632812499 12.715628802734386  C 0.25438112109375766 13.008394314453085  0.25438112109375766 13.482924574218714  0.547146632812499 13.775676085937448  C 0.6935293886718767 13.922058841796911  0.885661123046873 13.995243212890614  1.0771772675781222 13.995243212890614  C 1.2686934121093714 13.995243212890614  1.4608251601562472 13.922044841796833  1.6072079023437453 13.775676085937448  L 7.852853367187507 7.5300306347655805  Z " fill-rule="nonzero" fill="#000000" stroke="none" transform="matrix(1 0 0 1 1552 2127 )" />
  </g>
</svg>