<?xml version="1.0" encoding="utf-8"?>
<svg version="1.1" xmlns:xlink="http://www.w3.org/1999/xlink" width="9px" height="14px" xmlns="http://www.w3.org/2000/svg">
  <g transform="matrix(1 0 0 1 -120 -2127 )">
    <path d="M 1.1471466328124933 7.5300306347655805  C 0.8543811347656172 7.237265136718746  0.8543811347656172 6.762734863281253  1.1471466328124933 6.4699693652344195  L 7.392806083984368 0.22430991406247358  C 7.685571595703124 -0.06845559765622511  8.160087869140625 -0.06845559765622511  8.452853367187501 0.22430991406247358  C 8.745618878906242 0.517075425781286  8.745618878906242 0.9916056855469151  8.452853367187501 1.2843571972656491  L 2.737224564453115 6.999986000000035  L 8.452853367187501 12.715628802734386  C 8.745618878906242 13.008394314453085  8.745618878906242 13.482924574218714  8.452853367187501 13.775676085937448  C 8.306470611328123 13.922058841796911  8.114338876953127 13.995243212890614  7.922822732421878 13.995243212890614  C 7.731306587890629 13.995243212890614  7.539174839843753 13.922044841796833  7.392792097656255 13.775676085937448  L 1.1471466328124933 7.5300306347655805  Z " fill-rule="nonzero" fill="#000000" stroke="none" transform="matrix(1 0 0 1 120 2127 )" />
  </g>
</svg>