<?xml version="1.0" encoding="utf-8"?>
<svg version="1.1" xmlns:xlink="http://www.w3.org/1999/xlink" width="14px" height="14px" xmlns="http://www.w3.org/2000/svg">
  <g transform="matrix(1 0 0 1 -80 -49 )">
    <path d="M 13.811488373046814 13.798790701171868  C 14.04818604492175 13.572837208984367  14.037441865234427 13.196139537109332  13.800581388671844 12.97002325390622  L 10.678744179687556 9.880581388671885  C 10.616752281183835 9.8175288627354  10.538565733798919 9.772802553067265  10.45279070117192 9.751325582031257  C 11.324860462890683 8.707186044921855  11.841395357421902 7.383046507812479  11.841395343750037 5.94072092578125  C 11.841395343750037 2.668302314453115  9.193279060546956 0.020023253906231275  5.920860462890573 0.020023253906231275  C 2.6484418652344175 0.020023253906231275  0.00016279101555483066 2.6681395371093686  0.00016279101555483066 5.94072092578125  C 0.00016279101555483066 9.213139537109384  2.648279074218749 11.861255806640656  5.920860462890573 11.861255820312522  C 7.3631860449219175 11.861255820312522  8.67658138867182 11.3445581484375  9.70997674609373 10.49413953710939  C 9.74220929882813 10.569511626953158  9.785348835937498 10.644883716796869  9.849976746093716 10.709348835937476  L 12.971813955078119 13.798790701171868  C 13.206029855811948 14.02492520176645  13.577272472313098 14.02492520176645  13.811488373046814 13.798790701171868  Z M 10.765023253906293 5.94072092578125  C 10.765023253906293 8.62106976171873  8.601209298828053 10.784720925781244  5.920860462890573 10.784720925781244  C 3.2403488359375388 10.784720925781244  1.0766976718749675 8.62106976171873  1.0766976718749675 5.94072092578125  C 1.0766976718749675 3.260372089843713  3.2405116269530936 1.096558134765644  5.920860462890573 1.096558134765644  C 8.601209298828053 1.096558134765644  10.765023253906293 3.260372089843713  10.765023253906293 5.94072092578125  Z " fill-rule="nonzero" fill="#000000" stroke="none" fill-opacity="0.6" transform="matrix(1 0 0 1 80 49 )" />
  </g>
</svg>