<?xml version="1.0" encoding="utf-8"?>
<svg version="1.1" xmlns:xlink="http://www.w3.org/1999/xlink" width="145px" height="48px" xmlns="http://www.w3.org/2000/svg">
  <g transform="matrix(1 0 0 1 -40 -260 )">
    <path d="M 40.5 284  A 23.5 23.5 0 0 1 64 260.5 L 161 260.5  A 23.5 23.5 0 0 1 184.5 284 A 23.5 23.5 0 0 1 161 307.5 L 64 307.5  A 23.5 23.5 0 0 1 40.5 284 Z " fill-rule="nonzero" fill="#ffffff" stroke="none" fill-opacity="0" />
    <path d="M 40.5 284  A 23.5 23.5 0 0 1 64 260.5 L 161 260.5  A 23.5 23.5 0 0 1 184.5 284 A 23.5 23.5 0 0 1 161 307.5 L 64 307.5  A 23.5 23.5 0 0 1 40.5 284 Z " stroke-width="1" stroke="#000000" fill="none" />
  </g>
</svg>