<?xml version="1.0" encoding="utf-8"?>
<svg version="1.1" xmlns:xlink="http://www.w3.org/1999/xlink" width="7px" height="12px" xmlns="http://www.w3.org/2000/svg">
  <g transform="matrix(1 0 0 1 -186 -112 )">
    <path d="M 6.73101717187501 6.454311972656214  C 6.981959027343777 6.2033701171874895  6.981959027343777 5.796629882812496  6.73101717187501 5.545688027343786  L 1.3775947851562478 0.19226564062498142  C 1.1266529179687552 -0.058676226562482725  0.7199246835937458 -0.058676226562482725  0.46898282812500725 0.19226564062498142  C 0.21804096093751468 0.4432075078125308  0.21804096093751468 0.8499477304687844  0.46898282812500725 1.1008775976562646  L 5.368093230468759 5.99998800000003  L 0.46898282812500725 10.899110402343752  C 0.21804096093751468 11.150052269531216  0.21804096093751468 11.55679249218747  0.46898282812500725 11.807722359374964  C 0.5944537617187393 11.933193292968781  0.7591381054687361 11.995922753906243  0.9232948007812354 11.995922753906243  C 1.0874514960937347 11.995922753906243  1.2521358515624854 11.933181292968712  1.377606773437492 11.807722359374964  L 6.73101717187501 6.454311972656214  Z " fill-rule="nonzero" fill="#000000" stroke="none" transform="matrix(1 0 0 1 186 112 )" />
  </g>
</svg>