<?xml version="1.0" encoding="utf-8"?>
<svg version="1.1" xmlns:xlink="http://www.w3.org/1999/xlink" width="10px" height="14px" xmlns="http://www.w3.org/2000/svg">
  <g transform="matrix(1 0 0 1 -920 -1533 )">
    <path d="M 8.72539263020834 7.5300306347655805  C 9.050687628038203 7.237265136718746  9.050687628038203 6.762734863281253  8.72539263020834 6.4699693652344195  L 1.7857710177951467 0.22430991406247358  C 1.460476004774307 -0.06845559765622511  0.933235700954861 -0.06845559765622511  0.6079407031249988 0.22430991406247358  C 0.2826456901041752 0.517075425781286  0.2826456901041752 0.9916056855469151  0.6079407031249988 1.2843571972656491  L 6.9586393728298725 6.999986000000035  L 0.6079407031249988 12.715628802734386  C 0.2826456901041752 13.008394314453085  0.2826456901041752 13.482924574218714  0.6079407031249988 13.775676085937448  C 0.7705882096354186 13.922058841796911  0.9840679144965254 13.995243212890614  1.196863630642358 13.995243212890614  C 1.4096593467881904 13.995243212890614  1.6231390668402745 13.922044841796833  1.785786558159717 13.775676085937448  L 8.72539263020834 7.5300306347655805  Z " fill-rule="nonzero" fill="#000000" stroke="none" transform="matrix(1 0 0 1 920 1533 )" />
  </g>
</svg>