<?xml version="1.0" encoding="utf-8"?>
<svg version="1.1" xmlns:xlink="http://www.w3.org/1999/xlink" width="105px" height="32px" xmlns="http://www.w3.org/2000/svg">
  <g transform="matrix(1 0 0 1 -346 -356 )">
    <path d="M 346.5 372  A 15.5 15.5 0 0 1 362 356.5 L 435 356.5  A 15.5 15.5 0 0 1 450.5 372 A 15.5 15.5 0 0 1 435 387.5 L 362 387.5  A 15.5 15.5 0 0 1 346.5 372 Z " fill-rule="nonzero" fill="#ffffff" stroke="none" fill-opacity="0" />
    <path d="M 346.5 372  A 15.5 15.5 0 0 1 362 356.5 L 435 356.5  A 15.5 15.5 0 0 1 450.5 372 A 15.5 15.5 0 0 1 435 387.5 L 362 387.5  A 15.5 15.5 0 0 1 346.5 372 Z " stroke-width="1" stroke="#ffffff" fill="none" />
  </g>
</svg>