<?xml version="1.0" encoding="utf-8"?>
<svg version="1.1" xmlns:xlink="http://www.w3.org/1999/xlink" width="16px" height="16px" xmlns="http://www.w3.org/2000/svg">
  <g transform="matrix(1 0 0 1 -1476 -20 )">
    <path d="M 9.272780000000012 8  L 15.63668000000007 14.363899999999765  C 15.988219999999956 14.715439999999944  15.988219999999956 15.285319999999956  15.63668000000007 15.63676999999981  C 15.285319999999956 15.988219999999924  14.715439999999944 15.988219999999924  14.363990000000058 15.63676999999981  L 8 9.272870000000044  L 1.6360999999999422 15.63676999999981  C 1.2845600000000559 15.988219999999924  0.714680000000044 15.988219999999924  0.36322999999993044 15.63676999999981  C 0.01178000000004431 15.285319999999956  0.01178000000004431 14.715439999999944  0.36322999999993044 14.36399000000009  L 6.727129999999988 8  L 0.36322999999993044 1.6361000000002346  C 0.01178000000004431 1.2845600000000559  0.01178000000004431 0.714680000000044  0.36322999999993044 0.3632300000001903  C 0.714680000000044 0.011780000000076793  1.2845600000000559 0.011780000000076793  1.636009999999942 0.3632300000001903  L 8 6.727129999999955  L 14.363900000000058 0.3632300000001903  C 14.715439999999944 0.011780000000076793  15.285319999999956 0.011780000000076793  15.63677000000007 0.3632300000001903  C 15.988219999999956 0.714680000000044  15.988219999999956 1.2845600000000559  15.63677000000007 1.6360099999999096  L 9.272870000000012 8  Z " fill-rule="nonzero" fill="#000000" stroke="none" transform="matrix(1 0 0 1 1476 20 )" />
  </g>
</svg>